<svg xmlns="http://www.w3.org/2000/svg" width="43" height="43" viewBox="0 0 43 43">
  <g id="Group_2088" data-name="Group 2088" transform="translate(-741 -245)">
    <g id="Group_2088-2" data-name="Group 2088" transform="translate(741 245)">
      <path id="Path_664" data-name="Path 664" d="M-13.264,110.025a21.447,21.447,0,0,0-14.3,5.921l14.3,14.3Z" transform="translate(34.235 -110.025)" fill="#242e52"/>
      <path id="Path_665" data-name="Path 665" d="M-39.975,151a21.446,21.446,0,0,0,5.921,14.3l14.3-14.3Z" transform="translate(39.975 -128.971)" fill="#242e52"/>
      <path id="Path_666" data-name="Path 666" d="M-34.054,122.44a21.446,21.446,0,0,0-5.921,14.3h20.217Z" transform="translate(39.975 -115.765)" fill="#242e52"/>
      <path id="Path_667" data-name="Path 667" d="M15.3,115.946A21.446,21.446,0,0,0,1,110.025v20.217Z" transform="translate(21.029 -110.025)" fill="#242e52"/>
      <path id="Path_668" data-name="Path 668" d="M22.631,136.736a21.445,21.445,0,0,0-5.921-14.3l-14.3,14.3Z" transform="translate(20.369 -115.765)" fill="#242e52"/>
      <path id="Path_669" data-name="Path 669" d="M16.71,165.3A21.445,21.445,0,0,0,22.631,151H2.414Z" transform="translate(20.369 -128.971)" fill="#242e52"/>
      <path id="Path_670" data-name="Path 670" d="M-27.56,166.71a21.447,21.447,0,0,0,14.3,5.921V152.414Z" transform="translate(34.235 -129.631)" fill="#242e52"/>
      <path id="Path_671" data-name="Path 671" d="M1,172.632a21.446,21.446,0,0,0,14.3-5.921L1,152.415Z" transform="translate(21.029 -129.632)" fill="#242e52"/>
    </g>
  </g>
</svg>
