<svg id="Group_1991" data-name="Group 1991" xmlns="http://www.w3.org/2000/svg" width="24" height="24" viewBox="0 0 24 24">
  <circle id="Ellipse_268" data-name="Ellipse 268" cx="12" cy="12" r="12" fill="#f0f0f0"/>
  <g id="Group_1989" data-name="Group 1989" transform="translate(0.411 0.411)">
    <path id="Path_684" data-name="Path 684" d="M10.874,100.142a11.886,11.886,0,0,0-2.055,4.151h6.206Z" transform="translate(-8.819 -95.887)" fill="#0052b4"/>
    <path id="Path_685" data-name="Path 685" d="M376.211,104.294a11.887,11.887,0,0,0-2.055-4.151l-4.151,4.151Z" transform="translate(-353.174 -95.887)" fill="#0052b4"/>
    <path id="Path_686" data-name="Path 686" d="M8.819,322.784a11.887,11.887,0,0,0,2.055,4.151l4.151-4.151Z" transform="translate(-8.819 -308.154)" fill="#0052b4"/>
    <path id="Path_687" data-name="Path 687" d="M326.933,10.874a11.886,11.886,0,0,0-4.151-2.055v6.206Z" transform="translate(-308.152 -8.819)" fill="#0052b4"/>
    <path id="Path_688" data-name="Path 688" d="M100.142,374.156a11.887,11.887,0,0,0,4.151,2.055v-6.206Z" transform="translate(-95.887 -353.174)" fill="#0052b4"/>
    <path id="Path_689" data-name="Path 689" d="M104.293,8.819a11.887,11.887,0,0,0-4.151,2.055l4.151,4.151Z" transform="translate(-95.887 -8.819)" fill="#0052b4"/>
    <path id="Path_690" data-name="Path 690" d="M322.783,376.211a11.887,11.887,0,0,0,4.151-2.055l-4.151-4.151v6.206Z" transform="translate(-308.153 -353.174)" fill="#0052b4"/>
    <path id="Path_691" data-name="Path 691" d="M370.005,322.784l4.151,4.151a11.887,11.887,0,0,0,2.055-4.151Z" transform="translate(-353.174 -308.154)" fill="#0052b4"/>
  </g>
  <g id="Group_1990" data-name="Group 1990">
    <path id="Path_692" data-name="Path 692" d="M23.757,10.373H13.485V.1a12.039,12.039,0,0,0-3.112,0V10.373H.1a12.039,12.039,0,0,0,0,3.112H10.373V23.757a12.038,12.038,0,0,0,3.112,0V13.485H23.757a12.038,12.038,0,0,0,0-3.112Z" fill="#d80027"/>
    <path id="Path_693" data-name="Path 693" d="M322.783,322.783h0l5.323,5.323q.367-.367.7-.766l-4.557-4.557h-1.467Z" transform="translate(-307.742 -307.742)" fill="#d80027"/>
    <path id="Path_694" data-name="Path 694" d="M80.3,322.784h0l-5.323,5.323q.367.367.766.7l4.557-4.557v-1.467Z" transform="translate(-71.486 -307.743)" fill="#d80027"/>
    <path id="Path_695" data-name="Path 695" d="M65.957,80.3h0L60.634,74.98q-.367.367-.7.766L64.49,80.3h1.467Z" transform="translate(-57.14 -71.486)" fill="#d80027"/>
    <path id="Path_696" data-name="Path 696" d="M322.783,65.958h0l5.323-5.323q-.367-.367-.766-.7l-4.557,4.557Z" transform="translate(-307.742 -57.141)" fill="#d80027"/>
  </g>
</svg>
