<svg xmlns="http://www.w3.org/2000/svg" width="21.332" height="20.811" viewBox="0 0 21.332 20.811">
  <g id="Group_2923" data-name="Group 2923" transform="translate(-14.534 -177.31)">
    <path id="Path_9274" data-name="Path 9274" d="M1680.688,1113.928a1.619,1.619,0,1,0-3.238,0,1.619,1.619,0,0,0,3.238,0" transform="translate(-1647.504 -917.403)" fill="#f5f2f0"/>
    <path id="Path_9275" data-name="Path 9275" d="M1673.87,1113.928a1.619,1.619,0,1,0-3.238,0,1.619,1.619,0,0,0,3.238,0" transform="translate(-1649.097 -917.403)" fill="#f5f2f0"/>
    <path id="Path_9276" data-name="Path 9276" d="M1685.2,1103.87l-15.369-1.4-.581-3a.8.8,0,0,0-.532-.58l-2.851-.822a.7.7,0,1,0-.387,1.353l2.417.724,2.9,13.921a.693.693,0,0,0,.725.628H1683.9a.726.726,0,0,0,0-1.449l-11.793.048-.436-2.175h12.422a1.16,1.16,0,0,0,1.209-.919l.966-5.026a1.107,1.107,0,0,0-1.063-1.305" transform="translate(-1650.422 -920.72)" fill="#f5f2f0"/>
  </g>
</svg>
